<?xml version="1.0" standalone="no"?>
<!DOCTYPE svg PUBLIC "-//W3C//DTD SVG 20010904//EN"
 "http://www.w3.org/TR/2001/REC-SVG-20010904/DTD/svg10.dtd">
<svg version="1.0" xmlns="http://www.w3.org/2000/svg"
 width="562.000000pt" height="562.000000pt" viewBox="0 0 562.000000 562.000000"
 preserveAspectRatio="xMidYMid meet">
<metadata>
Created by potrace 1.14, written by Peter Selinger 2001-2017
</metadata>
<g transform="translate(0.000000,562.000000) scale(0.100000,-0.100000)"
fill="#000000" stroke="none">
<path d="M0 2810 l0 -2810 2810 0 2810 0 0 2810 0 2810 -2810 0 -2810 0 0
-2810z m1222 495 c0 -38 -17 -180 -32 -260 -5 -27 -12 -67 -15 -87 -5 -31 -10
-38 -29 -38 -22 0 -22 1 -14 73 17 154 69 369 85 353 3 -3 5 -21 5 -41z m1018
-49 c0 -2 3 -11 6 -20 5 -12 -3 -14 -48 -12 -29 2 -37 1 -18 -1 36 -5 50 -17
50 -43 0 -12 -2 -13 -9 -1 -5 8 -14 10 -21 6 -10 -6 -9 -10 4 -17 21 -12 39 0
33 22 -3 13 0 17 9 13 15 -6 13 -65 -2 -69 -5 -1 -30 -5 -56 -9 -29 -4 -60
-16 -77 -30 -25 -21 -28 -30 -24 -65 4 -36 1 -43 -32 -75 -21 -19 -42 -32 -47
-29 -6 4 -8 -2 -4 -14 4 -11 1 -26 -6 -33 -17 -18 -123 -227 -131 -259 -3 -13
-9 -22 -11 -19 -9 9 43 157 69 195 13 19 27 44 30 55 4 10 11 19 17 19 5 0 7
7 4 16 -4 10 -2 13 6 8 7 -4 8 -3 4 4 -10 16 -32 15 -50 -3 -13 -14 -15 -11
-18 26 -3 47 -31 76 -48 49 -7 -10 -10 -11 -10 -2 0 8 -8 10 -25 6 -20 -5 -24
-3 -19 10 4 11 1 16 -10 16 -9 0 -16 7 -16 16 0 8 5 12 11 9 14 -9 38 24 39
52 0 18 7 22 38 25 32 3 37 7 40 31 3 24 7 27 43 27 32 0 39 3 39 20 0 21 33
29 45 10 9 -15 25 -12 25 5 0 8 8 15 18 15 13 0 14 -2 4 -9 -10 -6 -6 -10 15
-14 30 -6 48 10 33 29 -13 15 -2 24 32 24 15 0 28 5 28 10 0 6 9 10 20 10 11
0 20 -2 20 -4z m-180 -46 c0 -5 -4 -10 -10 -10 -5 0 -10 5 -10 10 0 6 5 10 10
10 6 0 10 -4 10 -10z m285 -60 c4 -6 -9 -10 -32 -9 -34 1 -35 2 -13 9 35 11
38 11 45 0z m141 -121 c108 -19 208 -77 315 -181 135 -132 171 -220 171 -424
l0 -111 36 -17 c33 -16 34 -18 16 -30 -10 -7 -28 -16 -39 -20 -24 -7 -38 20
-52 104 l-9 55 -8 -40 c-21 -119 -19 -116 -28 -45 -5 36 -16 103 -24 149 -53
297 -242 480 -494 481 -263 0 -421 -186 -461 -546 -14 -125 -29 -120 -29 11 0
131 23 234 76 344 108 221 289 314 530 270z m-1473 -159 c-111 -64 -194 -174
-248 -328 -13 -37 -24 -61 -24 -54 -2 21 38 131 70 195 17 33 52 82 77 109 47
50 134 108 162 108 8 0 -9 -14 -37 -30z m385 -127 c75 -96 121 -233 112 -338
-7 -80 -8 -78 -46 69 -18 72 -46 147 -81 215 -29 58 -53 107 -53 108 0 12 43
-23 68 -54z m3048 -132 c17 -10 40 -21 50 -24 18 -4 18 -5 -1 -6 -11 0 -29 6
-40 14 -17 14 -20 13 -32 -7 l-12 -23 -1 27 c0 14 -6 29 -12 31 -9 4 -8 6 2 6
8 1 29 -8 46 -18z m-3626 -33 c-16 -37 -38 -131 -53 -228 -3 -18 -5 -16 -6 10
-1 43 33 190 54 230 23 45 27 36 5 -12z m1027 -20 c-3 -8 -6 -5 -6 6 -1 11 2
17 5 13 3 -3 4 -12 1 -19z m2815 -27 c47 -30 83 -72 112 -128 27 -53 18 -52
-13 2 -32 55 -90 114 -136 138 -16 9 -25 16 -19 17 5 0 31 -13 56 -29z m-2372
-39 c-8 -3 -19 -11 -23 -18 -13 -22 -64 -18 -70 5 -3 15 1 21 17 23 30 4 94
-4 76 -10z m-1174 -117 c1 -57 -2 -102 -6 -100 -10 6 -13 205 -3 205 4 0 8
-47 9 -105z m-379 73 c-3 -8 -6 -5 -6 6 -1 11 2 17 5 13 3 -3 4 -12 1 -19z
m1082 -12 c-1 -29 -1 -30 -8 -6 l-7 25 -7 -25 c-4 -14 -7 -37 -7 -51 0 -31 -7
-39 -26 -32 -15 6 -54 73 -54 93 0 15 39 28 78 28 29 -1 32 -4 31 -32z m844 5
c31 -11 85 -32 118 -47 l61 -28 -4 -83 c-4 -75 -15 -114 -25 -88 -10 27 -24
33 -95 39 -70 6 -79 5 -98 -14 -11 -11 -20 -16 -20 -10 0 25 51 42 115 38 36
-2 65 0 65 5 0 5 -21 29 -47 53 -53 49 -134 84 -191 84 -39 0 -115 -30 -144
-57 -23 -21 -24 -47 -2 -39 37 14 86 -49 54 -69 -5 -3 -10 -17 -10 -30 0 -17
6 -25 22 -27 26 -3 32 -27 42 -154 10 -119 6 -122 -160 -131 l-132 -6 -16 25
c-15 24 -36 151 -36 226 0 28 3 32 28 33 61 1 64 5 75 112 0 9 5 17 10 17 4 0
17 19 27 43 25 57 60 93 112 118 53 25 163 20 251 -10z m-1233 -95 l0 -44 -64
-4 c-93 -6 -128 -43 -144 -150 l-7 -53 -23 23 c-31 31 -29 78 7 133 39 61 69
86 137 114 86 36 94 34 94 -19z m1160 -41 c0 -16 -55 -22 -64 -6 -8 13 5 21
36 21 18 0 28 -5 28 -15z m-945 -57 c38 -87 40 -97 13 -107 -62 -23 -62 -23
-86 22 -25 47 -22 102 6 125 28 22 43 13 67 -40z m575 26 c0 -8 -4 -12 -10 -9
-16 10 -12 -7 7 -27 15 -17 15 -20 3 -28 -22 -14 -35 -6 -32 18 2 11 -2 23 -8
27 -6 4 -10 -4 -10 -20 0 -15 -4 -24 -10 -20 -5 3 -10 22 -10 41 0 32 2 34 35
34 25 0 35 -4 35 -16z m-172 -59 c23 -29 39 -155 23 -182 -9 -15 -10 -14 -11
10 0 18 -4 26 -11 21 -6 -3 -8 -17 -5 -30 4 -13 3 -42 0 -65 -6 -35 -8 -38
-17 -23 -6 11 -13 21 -17 24 -19 15 -67 227 -57 253 10 27 72 22 95 -8z m-632
-28 c4 -4 -10 -7 -32 -6 -30 0 -34 2 -19 8 22 9 41 8 51 -2z m1384 -59 c0 -16
-3 -19 -11 -11 -6 6 -8 16 -5 22 11 17 16 13 16 -11z m-1405 2 c-3 -5 -15 -10
-26 -10 -10 0 -19 5 -19 10 0 6 12 10 26 10 14 0 23 -4 19 -10z m1202 -62 c-2
-13 -4 -3 -4 22 0 25 2 35 4 23 2 -13 2 -33 0 -45z m1833 41 c0 -15 5 -19 15
-15 11 4 15 -1 15 -18 0 -13 -7 -27 -16 -30 -9 -3 -14 -12 -11 -19 2 -6 -3
-18 -12 -24 -13 -11 -14 -14 -2 -22 8 -5 10 -14 5 -22 -5 -8 -7 -22 -5 -33 1
-11 -2 -16 -8 -12 -6 4 -11 -1 -11 -12 0 -21 -62 -82 -83 -82 -8 0 -22 9 -31
19 -15 16 -16 25 -7 57 6 22 8 68 4 106 -4 50 -2 72 8 84 19 23 68 43 107 44
26 0 32 -4 32 -21z m-3290 -26 c0 -9 6 -12 18 -9 36 12 72 -56 48 -89 -13 -18
-15 -17 -32 16 -18 33 -19 33 -22 9 -2 -14 -9 -31 -14 -38 -11 -12 -18 -43
-22 -94 -1 -15 -5 -30 -9 -34 -9 -9 -9 132 -1 215 6 50 9 59 20 50 8 -6 14
-18 14 -26z m154 11 c4 -14 22 -49 41 -77 25 -39 32 -59 28 -79 -6 -33 -11
-34 -30 -10 -13 15 -13 15 -4 -5 13 -26 14 -43 2 -43 -17 0 -61 151 -61 213 0
34 16 35 24 1z m1496 -14 c-6 -11 -15 -18 -21 -15 -15 10 -11 23 9 28 9 3 18
5 20 6 1 0 -2 -8 -8 -19z m-1390 -24 c0 -8 -3 -22 -6 -31 -6 -14 -8 -13 -19 7
-6 13 -10 26 -8 31 7 13 33 7 33 -7z m1207 -68 c-3 -7 -5 -2 -5 12 0 14 2 19
5 13 2 -7 2 -19 0 -25z m-1544 15 c3 -5 8 -34 12 -65 7 -57 7 -58 -18 -58 -28
0 -32 7 -42 83 -6 45 -5 47 19 47 14 0 27 -3 29 -7z m135 -80 c-4 -33 -17 -33
-41 -1 -17 23 -18 30 -7 43 12 14 15 14 32 -2 11 -10 18 -27 16 -40z m502 33
c0 -2 -8 -10 -17 -17 -16 -13 -17 -12 -4 4 13 16 21 21 21 13z m-555 -383 c4
-10 9 -36 11 -58 3 -22 9 -64 15 -93 18 -91 3 -68 -20 30 -31 132 -32 138 -22
138 5 0 12 -8 16 -17z"/>
<path d="M2005 2970 c-3 -5 -1 -10 4 -10 6 0 11 5 11 10 0 6 -2 10 -4 10 -3 0
-8 -4 -11 -10z"/>
</g>
</svg>
